<svg width="16" height="16" viewBox="0 0 16 16" fill="none" xmlns="http://www.w3.org/2000/svg">
<path d="M15.0433 8.45181C15.0433 7.95746 14.9955 7.44716 14.9157 6.96875H8.0107V9.79136H11.9655C11.8061 10.7003 11.2798 11.4977 10.4984 12.008L12.8586 13.8419C14.246 12.5502 15.0433 10.6684 15.0433 8.45181Z" fill="#4280EF"/>
<path d="M8.01192 15.596C9.98934 15.596 11.6478 14.9422 12.8598 13.8259L10.4996 12.008C9.84582 12.4545 9.00063 12.7096 8.01192 12.7096C6.09829 12.7096 4.48765 11.4179 3.89761 9.69565L1.47368 11.5614C2.71754 14.0332 5.23715 15.596 8.01192 15.596Z" fill="#34A353"/>
<path d="M3.897 9.67973C3.59401 8.77076 3.59401 7.78204 3.897 6.87307L1.47307 4.99133C0.436518 7.06443 0.436518 9.50431 1.47307 11.5615L3.897 9.67973Z" fill="#F6B704"/>
<path d="M8.01192 3.85913C9.04847 3.84319 10.0691 4.24186 10.8186 4.95947L12.9076 2.85448C11.584 1.61061 9.82987 0.940844 8.01192 0.956791C5.23715 0.956791 2.71754 2.51959 1.47368 4.99136L3.89761 6.8731C4.48765 5.13489 6.09829 3.85913 8.01192 3.85913Z" fill="#E54335"/>
</svg>
